<svg width="223" height="51" viewBox="0 0 223 51" fill="none" xmlns="http://www.w3.org/2000/svg">
<path d="M166.432 13.9685C165.046 13.9712 163.675 14.2595 162.4 14.8164C161.124 15.3733 159.971 16.1875 159.007 17.2107V6.28211C159.005 6.1143 158.939 5.95401 158.823 5.83603C158.707 5.71805 158.55 5.65188 158.387 5.65189H154.604C154.441 5.65188 154.284 5.71805 154.168 5.83603C154.052 5.95401 153.986 6.1143 153.984 6.28211V35.8275C153.986 35.9953 154.052 36.1556 154.168 36.2736C154.284 36.3916 154.441 36.4577 154.604 36.4577H158.387C158.55 36.4577 158.707 36.3916 158.823 36.2736C158.939 36.1556 159.005 35.9953 159.007 35.8275V33.7911C159.969 34.8165 161.122 35.632 162.398 36.1888C163.674 36.7455 165.046 37.0322 166.432 37.0315C172.331 37.0315 177.101 31.8677 177.101 25.5C177.101 19.1323 172.331 13.9685 166.432 13.9685ZM165.557 32.4123C161.972 32.4123 159.064 29.3724 159.037 25.5856V25.4126C159.094 21.6258 161.974 18.5859 165.557 18.5859C169.171 18.5859 172.078 21.6841 172.078 25.4982C172.078 29.3122 169.141 32.4105 165.557 32.4105V32.4123ZM191.019 13.9685C184.639 13.9685 179.473 19.1323 179.473 25.5C179.473 31.8677 184.639 37.0315 191.019 37.0315C197.399 37.0315 202.564 31.8677 202.564 25.5C202.564 19.1323 197.399 13.9685 191.019 13.9685ZM190.99 32.4123C187.377 32.4123 184.47 29.3141 184.47 25.5C184.47 21.6859 187.405 18.5877 190.99 18.5877C194.576 18.5877 197.51 21.6859 197.51 25.5C197.51 29.3141 194.576 32.4123 190.99 32.4123ZM120.421 14.5423H116.639C116.475 14.5423 116.319 14.6084 116.202 14.7264C116.086 14.8444 116.02 15.0047 116.018 15.1725V17.2089C115.057 16.1832 113.903 15.3673 112.628 14.8103C111.352 14.2532 109.98 13.9663 108.594 13.9667C102.694 13.9667 97.9244 19.1305 97.9244 25.4982C97.9244 31.8659 102.694 37.0296 108.594 37.0296C109.979 37.027 111.351 36.7387 112.626 36.1818C113.901 35.6249 115.055 34.8107 116.018 33.7875V35.8239C116.02 35.9917 116.086 36.152 116.202 36.2699C116.319 36.3879 116.475 36.4541 116.639 36.4541H120.421C120.584 36.4541 120.741 36.3879 120.857 36.2699C120.973 36.152 121.04 35.9917 121.042 35.8239V15.1743C121.04 15.0065 120.973 14.8462 120.857 14.7282C120.741 14.6103 120.584 14.5441 120.421 14.5441V14.5423ZM109.468 32.4123C105.854 32.4123 102.948 29.3141 102.948 25.5C102.948 21.6859 105.884 18.5877 109.468 18.5877C113.052 18.5877 115.96 21.6276 115.988 25.4144V25.5874C115.96 29.3742 113.052 32.4141 109.468 32.4141V32.4123ZM139.305 13.9685C137.92 13.9712 136.549 14.2595 135.273 14.8164C133.998 15.3733 132.844 16.1875 131.881 17.2107V15.1743C131.879 15.0065 131.813 14.8462 131.697 14.7282C131.581 14.6103 131.424 14.5441 131.26 14.5441H127.478C127.315 14.5441 127.158 14.6103 127.042 14.7282C126.926 14.8462 126.859 15.0065 126.858 15.1743V44.7179C126.859 44.8857 126.926 45.046 127.042 45.164C127.158 45.282 127.315 45.3481 127.478 45.3481H131.26C131.424 45.3481 131.581 45.282 131.697 45.164C131.813 45.046 131.879 44.8857 131.881 44.7179V33.7893C132.843 34.815 133.996 35.6308 135.271 36.1879C136.547 36.745 137.919 37.0319 139.305 37.0315C145.205 37.0315 149.975 31.8677 149.975 25.5C149.975 19.1323 145.205 13.9685 139.305 13.9685ZM138.431 32.4123C134.846 32.4123 131.938 29.3724 131.911 25.5856V25.4126C131.968 21.6258 134.848 18.5859 138.431 18.5859C142.045 18.5859 144.951 21.6841 144.951 25.4982C144.951 29.3122 142.043 32.4105 138.431 32.4105V32.4123ZM86.6044 13.9685C85.222 13.9797 83.8703 14.3887 82.7028 15.1492C81.5352 15.9096 80.5986 16.9911 79.9993 18.2708C78.6162 15.6024 75.85 13.9394 72.8852 13.9685C71.7477 13.9704 70.6265 14.2464 69.6118 14.7744C68.597 15.3024 67.717 16.0676 67.0426 17.0085V15.1743C67.0407 15.0065 66.9745 14.8462 66.8583 14.7282C66.7421 14.6103 66.5853 14.5441 66.4219 14.5441H62.6397C62.4764 14.5441 62.3196 14.6103 62.2034 14.7282C62.0872 14.8462 62.021 15.0065 62.0191 15.1743V35.8275C62.021 35.9953 62.0872 36.1556 62.2034 36.2736C62.3196 36.3916 62.4764 36.4577 62.6397 36.4577H66.4219C66.5853 36.4577 66.7421 36.3916 66.8583 36.2736C66.9745 36.1556 67.0407 35.9953 67.0426 35.8275V23.4655C67.1844 20.7115 69.0746 18.5039 71.3904 18.5039C73.7896 18.5039 75.7933 20.5402 75.7933 23.2086V35.8293C75.7951 35.9971 75.8613 36.1574 75.9775 36.2754C76.0937 36.3934 76.2505 36.4595 76.4139 36.4595H80.2245C80.3878 36.4595 80.5446 36.3934 80.6608 36.2754C80.777 36.1574 80.8432 35.9971 80.8451 35.8293L80.8167 22.9791C81.1554 20.4546 82.9339 18.5039 85.1078 18.5039C87.507 18.5039 89.5107 20.5402 89.5107 23.2086V35.8293C89.5125 35.9971 89.5787 36.1574 89.6949 36.2754C89.8111 36.3934 89.9679 36.4595 90.1313 36.4595H93.9419C94.1052 36.4595 94.262 36.3934 94.3782 36.2754C94.4944 36.1574 94.5606 35.9971 94.5625 35.8293L94.5341 21.6313C94.5341 17.3855 90.9771 13.9722 86.6026 13.9722L86.6044 13.9685ZM222.915 35.567L216.367 25.4417L222.858 15.402C223.028 15.1434 222.943 14.7718 222.69 14.5988C222.605 14.5405 222.493 14.5131 222.379 14.5131H218.003C217.664 14.5131 217.354 14.6844 217.186 14.9721L213.375 21.4837L209.563 15.0013C209.394 14.7153 209.084 14.5423 208.745 14.5423H204.369C204.059 14.5423 203.805 14.8009 203.805 15.116C203.805 15.2308 203.834 15.3455 203.89 15.4311L210.382 25.4709L203.834 35.5962C203.663 35.8548 203.748 36.2264 204.002 36.3994C204.096 36.4571 204.203 36.4868 204.312 36.485H208.689C209.027 36.485 209.338 36.312 209.508 36.026L213.402 29.4288L217.297 36.026C217.468 36.3138 217.778 36.485 218.117 36.485H222.436C222.746 36.485 223 36.2264 223 35.9113C223 35.7965 222.972 35.6818 222.915 35.567ZM25.0942 0C11.2349 0 0 11.4167 0 25.5C0 39.5833 11.2349 51 25.0942 51C38.9535 51 50.1884 39.5833 50.1884 25.5C50.1884 11.4167 38.9552 0 25.0942 0ZM37.0065 31.753C28.4242 40.4721 13.0968 37.6908 13.0968 37.6908C13.0968 37.6908 10.3306 22.1449 18.9394 13.3948C23.7093 8.54796 31.6142 8.74832 36.6111 13.7955C41.6079 18.8427 41.7764 26.9043 37.0065 31.7511V31.753ZM27.9739 14.9448L25.518 20.0794L20.4662 22.5748L25.518 25.0701L27.9739 30.2048L30.4297 25.0701L35.4833 22.5748L30.4297 20.0794L27.9739 14.9448Z" fill="#FDFBFB"/>
</svg>
