<svg width="559" height="80" viewBox="0 0 559 80" fill="none" xmlns="http://www.w3.org/2000/svg">
<path d="M156 70L151 7.5H211L206 70L181 77.5L156 70Z" fill="#1172B8"/>
<path d="M206 12.5H181V73.75L201 67.5L206 12.5Z" fill="#33AADD"/>
<path d="M189.75 43.75H164.75L163.5 35L183.5 28.75H163.5L162.25 21.25H201L199.75 30L183.5 36.25H198.5L196 60L181 65L166 60L164.75 47.5H172.25L173.5 53.75L181 56.25L188.5 53.75L189.75 43.75Z" fill="white"/>
<path d="M236 70L231 7.5H291L286 70L261 77.5L236 70Z" fill="#E44D26"/>
<path d="M286 12.5H261V73.75L281 67.5L286 12.5Z" fill="#F16529"/>
<path d="M244.75 43.75L242.25 20H281L279.75 27.5H249.75L251 36.25H278.5L276 60L261 65L246 60L244.75 47.5H252.25L253.5 53.75L261 56.25L268.5 53.75L269.75 43.75H244.75Z" fill="white"/>
<rect x="308" y="5" width="70" height="70" fill="#FFCA28"/>
<path d="M350.5 63.2191L355.654 59.8089C356.058 61.0778 358.615 64.0915 361.846 64.0915C365.077 64.0915 366.577 62.3269 366.577 61.1571C366.577 57.9691 363.278 56.8451 361.693 56.3053C361.435 56.2172 361.222 56.1448 361.077 56.0814C361.002 56.0489 360.89 56.0058 360.745 55.9505C358.982 55.2772 352.481 52.7932 352.481 45.5929C352.481 37.662 360.135 36.75 361.865 36.75C362.998 36.75 368.442 36.8888 371.154 41.9843L366.154 45.4739C365.058 43.2533 363.236 42.5197 362.115 42.5197C359.346 42.5197 358.769 44.5499 358.769 45.4739C358.769 48.067 361.778 49.2292 364.318 50.2105C364.983 50.4673 365.616 50.7116 366.154 50.966C368.923 52.2746 373 54.4159 373 61.1571C373 64.5336 370.168 70 363.038 70C353.462 70 350.923 64.2502 350.5 63.2191Z" fill="#3E3E3E"/>
<path d="M325.5 63.8964L330.872 60.4878C331.293 61.7561 332.928 64.0945 335.301 64.0945C337.674 64.0945 338.889 61.657 338.889 60.4878V37.5H345.495V60.4878C345.602 63.6585 343.844 70 336.083 70C328.947 70 325.981 65.7592 325.5 63.8964Z" fill="#3E3E3E"/>
<rect width="132" height="64" transform="translate(0 8)" fill="white"/>
<path d="M38.0918 24.7076H58.0206V26.2855H39.9191V38.1604H56.941V39.7383H39.9191V52.7758H58.2281V54.3538H38.0918V24.7076V24.7076ZM59.8057 24.7076H61.9234L71.3065 37.7451L80.897 24.7076L93.9418 8.14722L72.5106 39.1154L83.5542 54.3538H81.3535L71.3065 40.4857L61.218 54.3538H59.0587L70.1854 39.1154L59.8064 24.7076H59.8057ZM84.3433 26.2855V24.7076H107.053V26.2855H96.5911V54.3531H94.7638V26.2855H84.3441H84.3433ZM13.1606 24.7076H15.4444L46.9319 71.643L33.9193 54.3538L15.0702 26.9497L14.9872 54.3538H13.1606V24.7076V24.7076ZM106.87 52.2994C106.496 52.2994 106.216 52.0114 106.216 51.6395C106.216 51.2669 106.496 50.9789 106.869 50.9789C107.247 50.9789 107.522 51.2669 107.522 51.6395C107.522 52.0114 107.247 52.2994 106.869 52.2994H106.87ZM108.664 50.5621H109.642C109.656 51.0898 110.043 51.4439 110.611 51.4439C111.246 51.4439 111.606 51.0635 111.606 50.3495V45.8297H112.601V50.3538C112.601 51.6395 111.855 52.3797 110.62 52.3797C109.461 52.3797 108.665 51.6615 108.665 50.5621H108.664ZM113.903 50.5053H114.889C114.974 51.1118 115.569 51.4973 116.427 51.4973C117.226 51.4973 117.813 51.0848 117.813 50.5181C117.813 50.0309 117.44 49.738 116.591 49.5389L115.764 49.3397C114.605 49.0695 114.076 48.5106 114.076 47.5712C114.076 46.432 115.009 45.674 116.408 45.674C117.71 45.674 118.662 46.432 118.719 47.5086H117.75C117.657 46.9198 117.142 46.5515 116.395 46.5515C115.608 46.5515 115.085 46.9284 115.085 47.5044C115.085 47.9609 115.422 48.2226 116.258 48.4174L116.964 48.5902C118.279 48.896 118.821 49.4279 118.821 50.3893C118.821 51.6125 117.87 52.3797 116.351 52.3797C114.929 52.3797 113.974 51.648 113.903 50.5045V50.5053Z" fill="black"/>
<path d="M476.733 31.25C470.336 31.25 465.723 35.4125 465.723 41.6562C465.723 47.9 470.915 52.0625 477.313 52.0625C481.178 52.0625 484.586 50.5362 486.695 47.9636L482.262 45.4083C481.091 46.6859 479.312 47.4317 477.313 47.4317C474.537 47.4317 472.179 45.9864 471.303 43.6739H487.541C487.669 43.0264 487.744 42.3558 487.744 41.6505C487.744 35.4125 483.131 31.25 476.733 31.25V31.25ZM471.251 39.6328C471.976 37.3261 473.958 35.875 476.728 35.875C479.503 35.875 481.485 37.3261 482.204 39.6328H471.251V39.6328ZM539.135 31.25C532.737 31.25 528.124 35.4125 528.124 41.6562C528.124 47.9 533.316 52.0625 539.714 52.0625C543.579 52.0625 546.987 50.5362 549.096 47.9636L544.663 45.4083C543.492 46.6859 541.713 47.4317 539.714 47.4317C536.938 47.4317 534.58 45.9864 533.705 43.6739H549.942C550.07 43.0264 550.145 42.3558 550.145 41.6505C550.145 35.4125 545.532 31.25 539.135 31.25V31.25ZM533.658 39.6328C534.383 37.3261 536.365 35.875 539.135 35.875C541.91 35.875 543.892 37.3261 544.611 39.6328H533.658ZM511.04 41.6562C511.04 45.125 513.312 47.4375 516.835 47.4375C519.223 47.4375 521.013 46.3564 521.935 44.5931L526.385 47.1542C524.543 50.2183 521.089 52.0625 516.835 52.0625C510.432 52.0625 505.825 47.9 505.825 41.6562C505.825 35.4125 510.437 31.25 516.835 31.25C521.089 31.25 524.537 33.0942 526.385 36.1583L521.935 38.7194C521.013 36.9561 519.223 35.875 516.835 35.875C513.318 35.875 511.04 38.1875 511.04 41.6562ZM558.838 24.8906V51.4844H553.622V24.8906H558.838ZM416.413 22L437.825 59H395L416.413 22ZM469.947 24.8906L453.889 52.6406L437.831 24.8906H443.852L453.889 42.2344L463.926 24.8906H469.947ZM504.086 31.8281V37.4302C503.507 37.2625 502.892 37.1469 502.232 37.1469C498.865 37.1469 496.437 39.4594 496.437 42.9281V51.4844H491.221V31.8281H496.437V37.1469C496.437 34.21 499.861 31.8281 504.086 31.8281Z" fill="white"/>
</svg>
