<svg width="886" height="83" viewBox="0 0 886 83" fill="none" xmlns="http://www.w3.org/2000/svg">
<rect x="646" y="7" width="70" height="70" fill="#FFCA28"/>
<path d="M688.5 65.2191L693.654 61.8089C694.058 63.0778 696.615 66.0915 699.846 66.0915C703.077 66.0915 704.577 64.3269 704.577 63.1571C704.577 59.9691 701.278 58.8451 699.693 58.3053C699.435 58.2172 699.222 58.1448 699.077 58.0814C699.002 58.0489 698.89 58.0058 698.745 57.9505C696.982 57.2772 690.481 54.7932 690.481 47.5929C690.481 39.662 698.135 38.75 699.865 38.75C700.998 38.75 706.442 38.8888 709.154 43.9843L704.154 47.4739C703.058 45.2533 701.236 44.5197 700.115 44.5197C697.346 44.5197 696.769 46.5499 696.769 47.4739C696.769 50.067 699.778 51.2292 702.318 52.2105C702.983 52.4673 703.616 52.7116 704.154 52.966C706.923 54.2746 711 56.4159 711 63.1571C711 66.5336 708.168 72 701.038 72C691.462 72 688.923 66.2502 688.5 65.2191Z" fill="#3E3E3E"/>
<path d="M663.5 65.8964L668.872 62.4878C669.293 63.7561 670.928 66.0945 673.301 66.0945C675.674 66.0945 676.889 63.657 676.889 62.4878V39.5H683.495V62.4878C683.602 65.6585 681.844 72 674.083 72C666.947 72 663.981 67.7592 663.5 65.8964Z" fill="#3E3E3E"/>
<path d="M528.697 41.9398C528.697 38.3537 525.699 35.4463 522 35.4463C518.301 35.4463 515.303 38.3537 515.303 41.9398C515.303 45.5262 518.301 48.4335 522 48.4335C525.699 48.4335 528.697 45.5262 528.697 41.9398Z" fill="#53C1DE"/>
<path fill-rule="evenodd" clip-rule="evenodd" d="M543.751 29.8843C545.165 24.312 546.943 13.9787 540.676 10.4754C534.438 6.98737 526.321 13.6711 522.035 17.683C517.761 13.711 509.416 7.05592 503.154 10.5703C496.919 14.0701 498.842 24.232 500.287 29.8392C494.471 31.441 484.5 34.891 484.5 41.9398C484.5 48.9685 494.46 52.722 500.242 54.3222C498.791 59.9605 496.965 69.9773 503.208 73.4691C509.493 76.9829 517.813 70.4863 522.138 66.4305C526.452 70.466 534.492 77.0052 540.73 73.5036C546.989 69.9908 545.359 59.796 543.913 54.1562C549.518 52.5525 559.5 48.8808 559.5 41.9398C559.5 34.9587 549.476 31.4807 543.751 29.8843ZM543.041 51.1674C542.091 48.2539 540.81 45.1557 539.243 41.9552C540.739 38.8303 541.97 35.772 542.893 32.8772C547.09 34.0569 556.296 36.7532 556.296 41.9398C556.296 47.1749 547.462 49.8968 543.041 51.1674ZM539.125 70.8151C534.47 73.4275 527.555 67.1741 524.37 64.2022C526.483 61.961 528.595 59.3556 530.656 56.4624C534.282 56.1505 537.708 55.6404 540.814 54.9443C541.832 58.9335 543.801 68.1907 539.125 70.8151ZM504.809 70.7777C500.154 68.1751 502.281 59.2366 503.349 55.0834C506.421 55.7421 509.821 56.2162 513.456 56.502C515.531 59.333 517.704 61.9353 519.894 64.2141C517.188 66.7519 509.486 73.3925 504.809 70.7777ZM487.704 41.9398C487.704 36.6849 496.855 34.0083 501.148 32.8315C502.086 35.7913 503.317 38.886 504.803 42.0154C503.298 45.1915 502.049 48.3354 501.102 51.3299C497.009 50.1941 487.704 47.1979 487.704 41.9398ZM504.759 13.2589C509.434 10.6354 516.687 17.0246 519.79 19.9003C517.611 22.1689 515.458 24.7515 513.401 27.5662C509.874 27.8832 506.497 28.3923 503.393 29.0742C502.228 24.5518 500.09 15.8795 504.759 13.2589ZM532.948 30.9427C535.341 31.2356 537.634 31.625 539.787 32.1016C539.141 34.1101 538.335 36.2103 537.386 38.3633C536.011 35.8332 534.535 33.354 532.948 30.9427ZM522.036 22.1203C523.514 23.6724 524.994 25.4058 526.449 27.2862C523.496 27.1509 520.538 27.1502 517.585 27.2842C519.042 25.4212 520.535 23.6904 522.036 22.1203ZM506.641 38.3611C505.708 36.2155 504.91 34.1059 504.258 32.0688C506.398 31.6044 508.68 31.225 511.057 30.9369C509.467 33.3429 507.993 35.8212 506.641 38.3611ZM511.126 53.1643C508.67 52.8985 506.353 52.5384 504.214 52.0869C504.876 50.0137 505.692 47.8587 506.645 45.6671C508.015 48.2332 509.511 50.7356 511.126 53.1643ZM522.124 61.9787C520.606 60.3899 519.091 58.6327 517.612 56.7427C520.582 56.8558 523.558 56.8561 526.527 56.7276C525.067 58.6521 523.592 60.4118 522.124 61.9787ZM537.417 45.5555C538.419 47.7709 539.264 49.9142 539.935 51.9523C537.761 52.4335 535.413 52.8209 532.939 53.1086C534.538 50.6518 536.037 48.134 537.417 45.5555ZM528.868 53.4852C524.325 53.7999 519.754 53.7966 515.21 53.5109C512.627 49.8536 510.329 46.0074 508.344 42.0144C510.319 38.0297 512.601 34.1911 515.171 30.5395C519.719 30.2062 524.295 30.2054 528.842 30.5414C531.39 34.1928 533.669 38.0215 535.689 41.9703C533.693 45.9531 531.399 49.7995 528.868 53.4852ZM539.076 13.1665C543.751 15.7813 541.67 25.0682 540.649 29.1064C537.537 28.4103 534.158 27.8922 530.621 27.5703C528.56 24.7251 526.425 22.138 524.281 19.8987C527.424 16.961 534.445 10.5772 539.076 13.1665Z" fill="#53C1DE"/>
<path d="M803.733 32.25C797.336 32.25 792.723 36.4125 792.723 42.6562C792.723 48.9 797.915 53.0625 804.313 53.0625C808.178 53.0625 811.586 51.5362 813.695 48.9636L809.262 46.4083C808.091 47.6859 806.312 48.4317 804.313 48.4317C801.537 48.4317 799.179 46.9864 798.303 44.6739H814.541C814.669 44.0264 814.744 43.3558 814.744 42.6505C814.744 36.4125 810.131 32.25 803.733 32.25V32.25ZM798.251 40.6328C798.976 38.3261 800.958 36.875 803.728 36.875C806.503 36.875 808.485 38.3261 809.204 40.6328H798.251V40.6328ZM866.135 32.25C859.737 32.25 855.124 36.4125 855.124 42.6562C855.124 48.9 860.316 53.0625 866.714 53.0625C870.579 53.0625 873.987 51.5362 876.096 48.9636L871.663 46.4083C870.492 47.6859 868.713 48.4317 866.714 48.4317C863.938 48.4317 861.58 46.9864 860.705 44.6739H876.942C877.07 44.0264 877.145 43.3558 877.145 42.6505C877.145 36.4125 872.532 32.25 866.135 32.25V32.25ZM860.658 40.6328C861.383 38.3261 863.365 36.875 866.135 36.875C868.91 36.875 870.892 38.3261 871.611 40.6328H860.658ZM838.04 42.6562C838.04 46.125 840.312 48.4375 843.835 48.4375C846.223 48.4375 848.013 47.3564 848.935 45.5931L853.385 48.1542C851.543 51.2183 848.089 53.0625 843.835 53.0625C837.432 53.0625 832.825 48.9 832.825 42.6562C832.825 36.4125 837.437 32.25 843.835 32.25C848.089 32.25 851.537 34.0942 853.385 37.1583L848.935 39.7194C848.013 37.9561 846.223 36.875 843.835 36.875C840.318 36.875 838.04 39.1875 838.04 42.6562ZM885.838 25.8906V52.4844H880.622V25.8906H885.838ZM743.413 23L764.825 60H722L743.413 23ZM796.947 25.8906L780.889 53.6406L764.831 25.8906H770.852L780.889 43.2344L790.926 25.8906H796.947ZM831.086 32.8281V38.4302C830.507 38.2625 829.892 38.1469 829.232 38.1469C825.865 38.1469 823.437 40.4594 823.437 43.9281V52.4844H818.221V32.8281H823.437V38.1469C823.437 35.21 826.861 32.8281 831.086 32.8281Z" fill="white"/>
<g clip-path="url(#clip0_301_44)">
<path d="M637.65 7H568V76.65H637.65V7Z" fill="white"/>
<path d="M568 42V77H638V7H568V42ZM625.575 39.8678C627.61 40.6462 629.645 43.0819 630.3 43.89C629.769 44.3653 626.371 46.9298 625.878 47.3081C625.625 47.1335 625.027 46.6319 624.245 46.025C623.15 45.1752 622.74 44.8 621.62 44.8C618.96 44.8 617.49 47.18 618.89 49.21C619.17 49.595 621.515 50.96 624.105 52.255C630.79 55.545 632.4 57.54 632.4 62.51C632.365 66.115 630.545 68.775 626.975 70.42C625.694 70.8813 624.63 71.225 621.725 71.19C617.63 71.19 614.69 70 612.87 68.425C611.188 66.7916 610.203 64.911 610.035 64.61C610.311 64.4326 611.295 63.84 612.625 63.07L615.068 61.6147L616.23 62.965C619.24 66.605 625.75 66.115 625.75 62.265C625.75 60.62 624.315 59.36 620.92 57.96C619.625 57.435 617.735 56.49 616.72 55.895C610.07 51.94 610.245 42.98 617 39.935C618.995 39.025 622.805 38.6495 625.575 39.8678V39.8678ZM608.25 42.35V45.15H599.15V71.05H592.85V45.15H583.4C583.339 43.2383 583.4 41.6707 583.402 39.5087L608.25 39.55V42.35Z" fill="#3178C6"/>
</g>
<path d="M157.458 64.2964L156.214 63.8853C156.214 63.8853 156.373 57.6003 154.102 57.1602C152.605 55.4284 154.333 -16.8181 159.772 56.9127C159.772 56.9127 157.91 57.8459 157.558 59.4306C157.206 61.0164 157.458 64.2964 157.458 64.2964" fill="url(#paint0_linear_301_44)"/>
<path d="M158.129 58.2273C158.129 58.2273 168.939 51.1204 166.407 36.3609C163.968 25.6379 158.209 22.1127 157.59 20.7669C156.909 19.8145 156.223 18.1263 156.223 18.1263L156.683 48.004C156.683 48.004 155.732 57.1268 158.129 58.2273" fill="url(#paint1_linear_301_44)"/>
<path d="M155.581 58.6245C155.581 58.6245 145.441 51.7195 146.024 39.5364C146.608 27.3529 153.77 21.3626 155.165 20.2758C156.067 19.3164 156.104 18.9466 156.174 18C156.806 19.3553 156.701 38.2436 156.768 40.4513C157.028 49.0454 156.291 57.0022 155.581 58.6245" fill="url(#paint2_linear_301_44)"/>
<path d="M278.111 54.6917C278.828 55.2642 280.262 55.5 281.527 55.5C283.166 55.5 284.771 55.1964 286.342 53.783C287.947 52.3346 289.04 50.1126 289.04 46.5775C289.04 43.1769 287.742 40.416 285.079 38.7999C283.576 37.8573 281.629 37.4872 279.409 37.4872C278.76 37.4872 278.111 37.5207 277.735 37.6889C277.633 37.7563 277.428 38.0257 277.428 38.1607C277.36 38.7665 277.36 43.379 277.36 46.106C277.36 48.9005 277.36 52.8061 277.428 53.2778C277.462 53.6816 277.667 54.3886 278.111 54.6917V54.6917ZM271.294 35.9719C271.874 35.9719 274.08 36.0728 275.106 36.0728C277.018 36.0728 278.35 35.9719 281.936 35.9719C284.942 35.9719 287.47 36.78 289.28 38.3286C291.466 40.2143 292.627 42.8403 292.627 46.0387C292.627 50.5841 290.544 53.2102 288.46 54.6917C286.376 56.2402 283.678 57.1157 279.819 57.1157C277.769 57.1157 274.251 57.0484 271.314 57.0152H271.273C271.137 56.7453 271.525 55.6955 271.765 55.6681C272.559 55.5785 272.775 55.548 273.143 55.3965C273.763 55.1418 273.91 54.8264 273.979 53.7151C274.08 51.6281 274.047 49.1365 274.047 46.3081C274.047 44.2882 274.08 40.3488 274.012 39.103C273.91 38.0594 273.467 37.7903 272.578 37.5879C272.134 37.4872 271.519 37.386 270.666 37.285C270.597 37.0831 271.123 36.1737 271.294 35.9719" fill="#C0BDBA"/>
<path d="M301.671 37.6219C301.535 37.6556 301.364 37.9924 301.364 38.1607C301.331 39.3724 301.296 42.5373 301.296 44.7255C301.296 44.7929 301.398 44.8939 301.467 44.8939C301.911 44.9279 303.004 44.9616 303.926 44.9616C305.224 44.9616 305.976 44.7929 306.385 44.5908C307.478 44.0525 307.99 42.874 307.99 41.5947C307.99 38.6655 305.941 37.5542 302.902 37.5542C302.697 37.5542 302.116 37.5542 301.671 37.6219ZM309.425 51.0893C309.425 48.1264 307.239 46.4431 303.243 46.4431C303.072 46.4431 301.808 46.4091 301.501 46.4768C301.398 46.5102 301.296 46.5775 301.296 46.6449C301.296 48.7663 301.262 52.1667 301.364 53.5131C301.433 54.0856 301.843 54.8938 302.355 55.1293C302.902 55.4326 304.13 55.5 304.985 55.5C307.341 55.5 309.425 54.1866 309.425 51.0893V51.0893ZM295.503 35.9719C295.81 35.9719 296.72 36.0728 299.042 36.0728C301.228 36.0728 303.004 36.0058 305.121 36.0058C307.751 36.0058 311.371 36.9484 311.371 40.854C311.371 42.773 310.006 44.3219 308.23 45.0626C308.127 45.0963 308.127 45.1636 308.23 45.1973C310.757 45.8366 312.977 47.3856 312.977 50.3484C312.977 53.2438 311.167 55.0621 308.537 56.207C306.932 56.9137 304.951 57.1494 302.935 57.1494C301.398 57.1494 297.28 56.981 294.991 57.0152C294.752 56.9137 295.21 55.8362 295.415 55.6681C295.962 55.6347 296.383 55.5953 296.964 55.4269C297.783 55.2249 297.88 54.9611 297.983 53.749C298.052 52.7055 298.052 48.9682 298.052 46.3081C298.052 42.672 298.085 40.2143 298.052 39.0023C298.017 38.0594 297.676 37.7563 297.027 37.5879C296.515 37.4872 295.661 37.386 294.978 37.285C294.806 37.1166 295.332 36.1066 295.503 35.9719" fill="#C0BDBA"/>
<path d="M173.315 57.1011C173.258 57.0104 173.198 56.7426 173.21 56.4204C173.22 56.1755 173.269 56.0199 173.315 55.9666C173.959 55.8651 174.264 55.7966 174.626 55.7C175.23 55.5505 175.457 55.2249 175.493 54.4541C175.592 52.6382 175.598 49.2333 175.561 46.8386L175.562 46.768C175.564 46.5112 175.569 46.1599 175.245 45.9122C174.772 45.6007 174.181 45.3431 173.434 45.1193C173.148 45.0348 172.99 44.8847 172.998 44.7092C173.007 44.5405 173.186 44.326 173.559 44.2543C174.548 44.1525 177.142 43.5362 178.159 43.0677C178.219 43.1407 178.314 43.2991 178.296 43.5515C178.288 43.6577 178.279 43.7687 178.27 43.8838C178.241 44.2222 178.208 44.6058 178.208 44.9882C178.208 45.1009 178.33 45.2076 178.46 45.2076C178.526 45.2076 178.587 45.1818 178.637 45.1329C180.576 43.618 182.311 43.0772 183.203 43.0772C184.671 43.0772 185.812 43.7763 186.695 45.2135C186.747 45.2896 186.816 45.3298 186.894 45.3298C186.968 45.3298 187.038 45.2918 187.079 45.2307C188.862 43.8822 190.629 43.0772 191.811 43.0772C194.607 43.0772 196.277 45.1642 196.277 48.6585C196.277 49.6626 196.266 50.9353 196.258 52.1235C196.249 53.1659 196.242 54.1431 196.242 54.8192C196.242 54.9832 196.462 55.4378 196.793 55.5288C197.202 55.7273 197.793 55.8287 198.539 55.9571L198.567 55.9617C198.624 56.1618 198.505 56.9411 198.392 57.1006C198.207 57.0991 197.95 57.0858 197.631 57.0698C197.05 57.04 196.255 57 195.328 57C193.471 57 192.5 57.0365 191.573 57.0962C191.503 56.865 191.478 56.1193 191.564 55.9639C192.104 55.8628 192.372 55.7947 192.696 55.6988C193.288 55.5044 193.458 55.2371 193.492 54.4541C193.506 53.8969 193.613 48.9964 193.423 47.8328C193.248 46.627 192.336 45.2155 190.342 45.2155C189.603 45.2155 188.408 45.5221 187.269 46.3833C187.198 46.4518 187.157 46.5849 187.157 46.6723L187.159 46.6947C187.294 47.3228 187.294 48.0553 187.294 49.1636C187.294 49.7952 187.289 50.4655 187.286 51.1309C187.278 52.482 187.271 53.7578 187.294 54.7216C187.294 55.3786 187.692 55.5353 188.012 55.6619C188.186 55.7005 188.325 55.7336 188.463 55.7665C188.732 55.8311 189.009 55.8976 189.421 55.9634C189.477 56.0929 189.482 56.4797 189.404 56.8104C189.361 56.9932 189.312 57.0737 189.286 57.0999C188.252 57.0646 187.192 57.0337 185.663 57.0337C185.199 57.0337 184.442 57.0536 183.774 57.0714C183.233 57.0858 182.72 57.0999 182.429 57.1011C182.387 57.0345 182.328 56.8213 182.328 56.5141C182.328 56.2287 182.38 56.0275 182.434 55.9655C182.578 55.9389 182.715 55.9148 182.845 55.8917C183.204 55.8279 183.514 55.7734 183.811 55.7005C184.317 55.5465 184.507 55.2659 184.544 54.6241C184.643 53.1257 184.72 48.8096 184.508 47.7285C184.146 45.9939 183.155 45.1149 181.564 45.1149C180.631 45.1149 179.454 45.5623 178.492 46.2818C178.33 46.4005 178.208 46.6992 178.208 46.9749C178.208 47.4888 178.207 48.1009 178.204 48.7571C178.198 50.925 178.19 53.6231 178.243 54.7909C178.276 55.1497 178.401 55.5769 179.08 55.7344C179.228 55.7757 179.484 55.8186 179.782 55.8675C179.953 55.896 180.14 55.927 180.332 55.9614C180.401 56.147 180.359 56.8746 180.241 57.1011C179.944 57.0991 179.579 57.0821 179.16 57.0638C178.52 57.0357 177.724 57 176.817 57C175.749 57 175.006 57.0357 174.409 57.0638C174.009 57.0826 173.661 57.0995 173.315 57.1011" fill="#414044"/>
<path d="M207.199 44.5087C206.577 44.5087 205.997 44.6711 205.565 44.9661C204.379 45.6853 203.775 47.1211 203.775 49.2304C203.775 53.1805 205.759 55.9389 208.599 55.9389C209.437 55.9389 210.12 55.6988 210.688 55.2045C211.56 54.4945 212.023 53.0447 212.023 51.0146C212.023 47.1231 210.084 44.5087 207.199 44.5087V44.5087ZM207.746 57.4041C202.614 57.4041 200.786 53.6512 200.786 50.1397C200.786 47.6867 201.792 45.7686 203.777 44.4394C205.188 43.5747 206.873 43.0772 208.395 43.0772C212.311 43.0772 215.046 45.8844 215.046 49.9043C215.046 52.6373 213.953 54.7943 211.885 56.1425C210.894 56.749 209.174 57.4041 207.746 57.4041" fill="#414044"/>
<path d="M260.337 44.5087C259.715 44.5087 259.134 44.6711 258.703 44.9661C257.517 45.6853 256.913 47.1207 256.913 49.2304C256.913 53.1805 258.897 55.9389 261.737 55.9389C262.575 55.9389 263.258 55.6988 263.826 55.2041C264.698 54.4945 265.161 53.045 265.161 51.0151C265.161 47.1234 263.222 44.5087 260.337 44.5087V44.5087ZM260.884 57.4041C255.752 57.4041 253.924 53.6515 253.924 50.14C253.924 47.6864 254.931 45.7682 256.916 44.4389C258.326 43.5744 260.011 43.0772 261.532 43.0772C265.449 43.0772 268.184 45.8849 268.184 49.9039C268.184 52.6377 267.091 54.7947 265.024 56.142C264.032 56.749 262.312 57.4041 260.884 57.4041" fill="#414044"/>
<path d="M243.165 44.3744C241.584 44.3744 240.562 45.62 240.562 47.5474C240.562 49.4926 241.441 51.764 243.917 51.764C244.343 51.764 245.114 51.5755 245.496 51.1555C246.071 50.6284 246.447 49.5391 246.447 48.3888C246.447 45.8749 245.22 44.3744 243.165 44.3744ZM242.961 57.6731C242.367 57.6731 241.935 57.8455 241.676 57.9901C240.425 58.7904 239.844 59.5895 239.844 60.5096C239.844 61.3774 240.182 62.0668 240.908 62.6797C241.787 63.4224 242.972 63.7839 244.532 63.7839C247.599 63.7839 248.974 62.1393 248.974 60.5096C248.974 59.3755 248.403 58.6152 247.229 58.1854C246.324 57.8556 244.812 57.6731 242.961 57.6731V57.6731ZM243.165 65.4849C241.324 65.4849 239.996 65.0973 238.862 64.2274C237.759 63.3785 237.265 62.1197 237.265 61.2498C237.265 60.9998 237.324 60.3534 237.869 59.7357C238.191 59.3719 238.934 58.6913 240.651 57.5136C240.704 57.4938 240.741 57.4419 240.741 57.3789C240.741 57.3086 240.695 57.2518 240.633 57.2385C239.217 56.6981 238.791 55.8115 238.662 55.3304C238.66 55.3132 238.654 55.2855 238.648 55.2562C238.607 55.0674 238.569 54.889 238.825 54.7059C239.023 54.5649 239.342 54.3767 239.679 54.1784C240.176 53.8854 240.74 53.5533 241.052 53.2865C241.102 53.2384 241.122 53.1678 241.11 53.0972C241.098 53.0258 241.057 52.9674 240.995 52.9373C238.901 52.2354 237.846 50.6841 237.846 48.3215C237.846 46.7962 238.551 45.4176 239.781 44.5384C240.623 43.8746 242.738 43.0765 244.108 43.0765L244.188 43.0773C245.597 43.1106 246.392 43.4048 247.491 43.8108C248.088 44.0314 248.654 44.1207 249.444 44.1207C250.611 44.1207 251.12 43.7521 251.558 43.3287C251.583 43.3812 251.642 43.5476 251.669 43.9308C251.697 44.3217 251.59 44.9008 251.29 45.3141C251.051 45.6436 250.498 45.8826 249.977 45.8826C249.924 45.8826 249.873 45.8801 249.823 45.8749C249.286 45.8223 249.034 45.7443 249.031 45.743L248.899 45.7888C248.858 45.8492 248.885 45.9166 248.919 46.0016C248.927 46.022 248.936 46.0414 248.938 46.0542C249.007 46.3267 249.129 47.1224 249.129 47.3454C249.129 49.8229 248.148 50.9036 247.089 51.7026C246.077 52.4634 244.896 52.9209 243.564 53.0611H243.562C243.535 53.0611 243.409 53.0725 243.155 53.0948C242.991 53.1097 242.786 53.1282 242.756 53.1282L242.726 53.1321C242.494 53.1975 241.894 53.4821 241.894 54.012C241.894 54.453 242.166 54.9993 243.465 55.0971C243.728 55.1168 244.01 55.1364 244.305 55.1565C246.02 55.2755 248.161 55.4238 249.168 55.7646C250.555 56.2681 251.417 57.5058 251.417 58.9947C251.417 61.2183 249.831 63.3089 247.176 64.5863C245.888 65.191 244.58 65.4849 243.165 65.4849Z" fill="#414044"/>
<path d="M234.74 55.9153C233.989 55.8143 233.442 55.7133 232.794 55.4104C232.691 55.343 232.554 55.0399 232.554 54.9389C232.486 53.8951 232.486 50.865 232.486 48.8788C232.486 47.2625 232.213 45.8486 231.53 44.838C230.71 43.6935 229.549 43.0202 228.046 43.0202C226.714 43.0202 224.938 43.9293 223.47 45.1751C223.435 45.2088 223.21 45.4221 223.215 45.0906C223.22 44.7595 223.271 44.0855 223.302 43.6611C223.333 43.237 223.078 43.037 223.078 43.037C222.122 43.5083 219.429 44.1465 218.434 44.2492C217.707 44.3887 217.524 45.0855 218.298 45.3261V45.3263C218.298 45.3274 218.305 45.3287 218.31 45.33C219.12 45.573 219.665 45.8328 220.073 46.1007C220.38 46.3364 220.346 46.6732 220.346 46.9426C220.38 49.1982 220.38 52.6665 220.277 54.5517C220.243 55.2925 220.038 55.5614 219.492 55.6965L219.542 55.6798C219.132 55.7803 218.79 55.848 218.278 55.9153C218.107 56.0834 218.107 57.0599 218.278 57.2622C218.619 57.2622 220.362 57.1609 221.796 57.1609C223.777 57.1609 224.801 57.2622 225.314 57.2622C225.518 57.0262 225.587 56.1171 225.45 55.9153C224.869 55.8817 224.46 55.8143 224.05 55.7133C223.503 55.5786 223.367 55.3094 223.333 54.7032C223.265 53.1209 223.265 49.7542 223.265 47.4644C223.265 46.8247 223.435 46.5216 223.64 46.3532C224.323 45.7471 225.45 45.3436 226.441 45.3436C227.397 45.3436 228.046 45.6465 228.524 46.0502C229.173 46.589 229.412 47.3634 229.481 47.9359C229.617 49.2155 229.583 51.7741 229.583 53.9962C229.583 55.2083 229.481 55.5114 229.037 55.6459C228.832 55.7472 228.285 55.848 227.636 55.9153C227.431 56.1171 227.5 57.0599 227.636 57.2622C228.524 57.2622 229.549 57.1609 231.051 57.1609C232.93 57.1609 234.125 57.2622 234.604 57.2622C234.808 57.0262 234.877 56.1506 234.74 55.9153" fill="#414044"/>
<path d="M317.782 54.2541H318.36C318.828 54.2541 319.005 54.0913 319.005 53.6698C319.005 53.2411 318.835 53.1 318.308 53.1H317.782V54.2541ZM319.013 56.0664L318.331 54.6015H317.782V56.0664H317.382V52.7375H318.368C319.102 52.7375 319.406 53.0633 319.406 53.6698C319.406 54.1576 319.176 54.4684 318.746 54.5576L319.45 56.0664H319.013V56.0664ZM318.368 52.0057C317.026 52.0057 315.96 53.0633 315.96 54.4093C315.96 55.7332 317.026 56.7987 318.36 56.7987C319.687 56.7987 320.754 55.7332 320.754 54.4093C320.754 53.056 319.717 52.0057 318.368 52.0057V52.0057ZM318.36 57.0354C316.878 57.0354 315.722 55.8814 315.722 54.4022C315.722 52.9152 316.878 51.769 318.368 51.769C319.821 51.769 320.998 52.9302 320.998 54.3648C320.998 55.8663 319.843 57.0354 318.36 57.0354Z" fill="#C0BDBA"/>
<g clip-path="url(#clip1_301_44)">
<path d="M67.2197 83.0003C66.7709 83.0003 66.3251 82.8829 65.9316 82.6572L61.8313 80.2382C61.2189 79.8969 61.5177 79.7762 61.7197 79.7067C62.5363 79.4218 62.702 79.3574 63.5736 78.8642C63.6652 78.8121 63.7851 78.8305 63.8788 78.8856L67.0288 80.7483C67.1426 80.8096 67.304 80.8096 67.4094 80.7483L79.6914 73.6838C79.8052 73.6194 79.8789 73.4877 79.8789 73.3529V59.23C79.8789 59.0891 79.8052 58.9635 79.6889 58.893L67.4119 51.8347C67.2981 51.7673 67.1475 51.7673 67.0337 51.8347L54.7591 58.893C54.6401 58.9604 54.5645 59.0922 54.5645 59.227V73.3499C54.5645 73.4846 54.6383 73.6133 54.7551 73.6776L58.1184 75.6138C59.9446 76.5237 61.0606 75.4514 61.0606 74.3731V60.434C61.0606 60.2349 61.2174 60.0817 61.4172 60.0817H62.9728C63.1665 60.0817 63.3264 60.2349 63.3264 60.434V74.3792C63.3264 76.8055 61.9983 78.1994 59.6894 78.1994C58.9793 78.1994 58.4197 78.1994 56.858 77.4335L53.6361 75.5832C52.8398 75.1236 52.3479 74.2658 52.3479 73.3499V59.227C52.3479 58.3079 52.8398 57.4501 53.6361 56.9967L65.9303 49.9291C66.7082 49.4911 67.7411 49.4911 68.5128 49.9291L80.7917 56.9998C81.5849 57.4562 82.0799 58.311 82.0799 59.23V73.3529C82.0799 74.2689 81.5849 75.1236 80.7917 75.5832L68.5128 82.6507C68.1193 82.8774 67.6735 82.9938 67.2185 82.9938" fill="#689F63"/>
<path d="M71.0134 73.2688C65.6395 73.2688 64.5128 70.8106 64.5128 68.7488C64.5128 68.5528 64.6714 68.3965 64.8685 68.3965H66.4548C66.6301 68.3965 66.7776 68.5237 66.8053 68.6962C67.0451 70.307 67.7583 71.1194 71.0079 71.1194C73.5965 71.1194 74.6971 70.5367 74.6971 69.1689C74.6971 68.3815 74.3835 67.7964 70.3623 67.4043C66.999 67.0734 64.9207 66.3351 64.9207 63.6545C64.9207 61.1853 67.0113 59.7148 70.5129 59.7148C74.445 59.7148 76.3942 61.075 76.6401 63.9976C76.6493 64.0987 76.6124 64.1967 76.5448 64.2703C76.4772 64.3407 76.3819 64.3836 76.2835 64.3836H74.6879C74.5219 64.3836 74.3774 64.2672 74.3436 64.1079C73.9593 62.4138 73.0308 61.8715 70.5068 61.8715C67.6815 61.8715 67.3525 62.8518 67.3525 63.5871C67.3525 64.4786 67.7399 64.739 71.5521 65.2414C75.3274 65.7408 77.1197 66.4454 77.1197 69.0892C77.1197 71.7545 74.8877 73.2832 70.9956 73.2832L71.0134 73.2688ZM85.9553 58.3056H86.3673C86.7055 58.3056 86.7701 58.0697 86.7701 57.9318C86.7701 57.5703 86.521 57.5703 86.3827 57.5703H85.9584L85.9553 58.3056ZM85.4542 57.1475H86.3673C86.6809 57.1475 87.2958 57.1475 87.2958 57.846C87.2958 58.3331 86.9822 58.4342 86.7946 58.4955C87.1605 58.52 87.1851 58.759 87.2343 59.0959C87.2589 59.3073 87.2988 59.6719 87.3726 59.7944H86.81C86.7946 59.6719 86.7086 58.9979 86.7086 58.9612C86.6717 58.811 86.6194 58.7375 86.4319 58.7375H85.9676V59.7975H85.4542V57.1475ZM84.3567 58.4649C84.3567 59.5616 85.2452 60.45 86.3366 60.45C87.4372 60.45 88.3257 59.5432 88.3257 58.4649C88.3257 57.365 87.4249 56.4919 86.3335 56.4919C85.2575 56.4919 84.3536 57.3528 84.3536 58.4618L84.3567 58.4649ZM88.7069 58.471C88.7069 59.7699 87.6401 60.8299 86.3396 60.8299C85.0484 60.8299 83.9724 59.7822 83.9724 58.471C83.9724 57.1353 85.073 56.1121 86.3396 56.1121C87.6155 56.1121 88.7038 57.1383 88.7038 58.471" fill="#689F63"/>
<path fill-rule="evenodd" clip-rule="evenodd" d="M29.1868 27.7402C29.1868 27.1765 28.8885 26.6588 28.4003 26.3785L15.3787 18.9127C15.1588 18.784 14.9126 18.7166 14.6629 18.7074H14.5283C14.2787 18.7166 14.0324 18.784 13.8089 18.9127L0.787829 26.3785C0.302698 26.6603 0.000183105 27.1781 0.000183105 27.7418L0.0287745 47.8508C0.0287745 48.1296 0.173269 48.39 0.419216 48.5278C0.659015 48.6749 0.9603 48.6749 1.2001 48.5278L8.94129 44.1102C9.43011 43.8204 9.72832 43.3082 9.72832 42.75V33.3557C9.72832 32.7951 10.0265 32.2773 10.5138 31.9985L13.8095 30.1071C14.0542 29.9662 14.3229 29.8963 14.5965 29.8963C14.8659 29.8963 15.1407 29.9656 15.3787 30.1068L18.6728 31.9976C19.1604 32.2764 19.4598 32.7941 19.4598 33.3548V42.7485C19.4598 43.306 19.7621 43.8207 20.2484 44.1087L27.9847 48.5232C28.2276 48.6672 28.5298 48.6672 28.7717 48.5232C29.0103 48.3854 29.1615 48.125 29.1615 47.8462L29.1868 27.7402ZM90.633 38.2102C90.633 38.3502 90.5583 38.4798 90.4362 38.549L85.9637 41.1181C85.8423 41.1876 85.6922 41.1876 85.5711 41.1181L81.0979 38.549C80.975 38.4794 80.9012 38.3499 80.9012 38.2102V33.0646C80.9012 32.9243 80.975 32.7951 81.0949 32.7246L85.565 30.1512C85.6879 30.0808 85.8386 30.0808 85.9615 30.1512L90.4347 32.7246C90.5577 32.7951 90.6315 32.9243 90.6315 33.0646L90.633 38.2102ZM91.8412 0.0991922C91.5971 -0.036216 91.3001 -0.0325397 91.0591 0.107464C90.8193 0.248386 90.6711 0.505723 90.6711 0.784505V20.6975C90.6711 20.8935 90.5666 21.0743 90.3963 21.1723C90.2272 21.2704 90.0166 21.2704 89.846 21.1723L86.5841 19.3002C86.0984 19.0202 85.5001 19.0202 85.0125 19.3002L71.9865 26.7915C71.4998 27.0702 71.1995 27.588 71.1995 28.1455V43.1323C71.1995 43.693 71.4998 44.2076 71.9865 44.4895L85.0125 51.9859C85.4989 52.2647 86.0977 52.2647 86.5856 51.9859L99.6116 44.4864C100.097 44.2046 100.399 43.6899 100.399 43.1293V5.77868C100.399 5.21009 100.088 4.68714 99.5901 4.40928L91.8412 0.0991922ZM135.218 32.9292C135.702 32.6492 136 32.1321 136 31.5745V27.9424C136 27.3836 135.702 26.868 135.217 26.5868L122.274 19.0995C121.785 18.8177 121.186 18.8177 120.697 19.0995L107.674 26.5899C107.185 26.8717 106.887 27.3864 106.887 27.947V42.9277C106.887 43.4914 107.191 44.0122 107.68 44.291L120.62 51.6404C121.096 51.913 121.68 51.9161 122.163 51.6496L129.99 47.3147C130.236 47.1768 130.393 46.9164 130.393 46.6346C130.393 46.3527 130.243 46.0893 129.997 45.9514L116.894 38.458C116.648 38.3201 116.497 38.0597 116.497 37.781V33.0815C116.497 32.8009 116.645 32.5423 116.891 32.4026L120.967 30.059C121.21 29.9181 121.508 29.9181 121.751 30.059L125.831 32.4026C126.074 32.5405 126.224 32.8009 126.224 33.0797V36.7743C126.224 37.0531 126.375 37.3135 126.618 37.4544C126.861 37.5922 127.162 37.5922 127.405 37.4513L135.218 32.9292Z" fill="#333333"/>
<path fill-rule="evenodd" clip-rule="evenodd" d="M121.295 32.2284C121.387 32.1742 121.502 32.1742 121.596 32.2284L124.095 33.6652C124.189 33.7191 124.246 33.8184 124.246 33.9256V36.8023C124.246 36.9095 124.189 37.0088 124.095 37.0627L121.596 38.4995C121.502 38.5537 121.387 38.5537 121.295 38.4995L118.797 37.0627C118.701 37.0088 118.643 36.9095 118.643 36.8023V33.9256C118.643 33.8184 118.698 33.7191 118.794 33.6652L121.295 32.2284Z" fill="#689F63"/>
<path d="M77.7985 25.3589L41.3015 7.53223L22.588 45.5733L59.0841 63.4009L77.7985 25.3589Z" fill="url(#paint3_linear_301_44)"/>
<path d="M20.2183 30.6315L45.9889 65.3882L80.0711 40.2961L54.2989 5.54028L20.2183 30.6315Z" fill="url(#paint4_linear_301_44)"/>
<path d="M36.4969 18.9688V51.8803H64.6834V18.9688H36.4969Z" fill="url(#paint5_linear_301_44)"/>
</g>
<path d="M335.72 30.08V39.4H345.88V42.4H335.72V52H347.08V55H332.08V27.08H347.08V30.08H335.72ZM364.028 55L358.828 46.84L353.828 55H350.028L357.108 44.12L350.028 33.08H354.148L359.348 41.2L364.308 33.08H368.108L361.068 43.92L368.148 55H364.028ZM375.368 37.12C376.088 35.8667 377.155 34.8267 378.568 34C380.008 33.1467 381.675 32.72 383.568 32.72C385.515 32.72 387.275 33.1867 388.848 34.12C390.448 35.0533 391.702 36.3733 392.608 38.08C393.515 39.76 393.968 41.72 393.968 43.96C393.968 46.1733 393.515 48.1467 392.608 49.88C391.702 51.6133 390.448 52.96 388.848 53.92C387.275 54.88 385.515 55.36 383.568 55.36C381.702 55.36 380.048 54.9467 378.608 54.12C377.195 53.2667 376.115 52.2133 375.368 50.96V65.4H371.728V33.08H375.368V37.12ZM390.248 43.96C390.248 42.3067 389.915 40.8667 389.248 39.64C388.582 38.4133 387.675 37.48 386.528 36.84C385.408 36.2 384.168 35.88 382.808 35.88C381.475 35.88 380.235 36.2133 379.088 36.88C377.968 37.52 377.062 38.4667 376.368 39.72C375.702 40.9467 375.368 42.3733 375.368 44C375.368 45.6533 375.702 47.1067 376.368 48.36C377.062 49.5867 377.968 50.5333 379.088 51.2C380.235 51.84 381.475 52.16 382.808 52.16C384.168 52.16 385.408 51.84 386.528 51.2C387.675 50.5333 388.582 49.5867 389.248 48.36C389.915 47.1067 390.248 45.64 390.248 43.96ZM402.4 36.64C403.04 35.3867 403.946 34.4133 405.12 33.72C406.32 33.0267 407.773 32.68 409.48 32.68V36.44H408.52C404.44 36.44 402.4 38.6533 402.4 43.08V55H398.76V33.08H402.4V36.64ZM433.682 43.2C433.682 43.8933 433.642 44.6267 433.562 45.4H416.042C416.175 47.56 416.908 49.2533 418.242 50.48C419.602 51.68 421.242 52.28 423.162 52.28C424.735 52.28 426.042 51.92 427.082 51.2C428.148 50.4533 428.895 49.4667 429.322 48.24H433.242C432.655 50.3467 431.482 52.0667 429.722 53.4C427.962 54.7067 425.775 55.36 423.162 55.36C421.082 55.36 419.215 54.8933 417.562 53.96C415.935 53.0267 414.655 51.7067 413.722 50C412.788 48.2667 412.322 46.2667 412.322 44C412.322 41.7333 412.775 39.7467 413.682 38.04C414.588 36.3333 415.855 35.0267 417.482 34.12C419.135 33.1867 421.028 32.72 423.162 32.72C425.242 32.72 427.082 33.1733 428.682 34.08C430.282 34.9867 431.508 36.24 432.362 37.84C433.242 39.4133 433.682 41.2 433.682 43.2ZM429.922 42.44C429.922 41.0533 429.615 39.8667 429.002 38.88C428.388 37.8667 427.548 37.1067 426.482 36.6C425.442 36.0667 424.282 35.8 423.002 35.8C421.162 35.8 419.588 36.3867 418.282 37.56C417.002 38.7333 416.268 40.36 416.082 42.44H429.922ZM446.246 55.36C444.566 55.36 443.06 55.08 441.726 54.52C440.393 53.9333 439.34 53.1333 438.566 52.12C437.793 51.08 437.366 49.8933 437.286 48.56H441.046C441.153 49.6533 441.66 50.5467 442.566 51.24C443.5 51.9333 444.713 52.28 446.206 52.28C447.593 52.28 448.686 51.9733 449.486 51.36C450.286 50.7467 450.686 49.9733 450.686 49.04C450.686 48.08 450.26 47.3733 449.406 46.92C448.553 46.44 447.233 45.9733 445.446 45.52C443.82 45.0933 442.486 44.6667 441.446 44.24C440.433 43.7867 439.553 43.1333 438.806 42.28C438.086 41.4 437.726 40.2533 437.726 38.84C437.726 37.72 438.06 36.6933 438.726 35.76C439.393 34.8267 440.34 34.0933 441.566 33.56C442.793 33 444.193 32.72 445.766 32.72C448.193 32.72 450.153 33.3333 451.646 34.56C453.14 35.7867 453.94 37.4667 454.046 39.6H450.406C450.326 38.4533 449.86 37.5333 449.006 36.84C448.18 36.1467 447.06 35.8 445.646 35.8C444.34 35.8 443.3 36.08 442.526 36.64C441.753 37.2 441.366 37.9333 441.366 38.84C441.366 39.56 441.593 40.16 442.046 40.64C442.526 41.0933 443.113 41.4667 443.806 41.76C444.526 42.0267 445.513 42.3333 446.766 42.68C448.34 43.1067 449.62 43.5333 450.606 43.96C451.593 44.36 452.433 44.9733 453.126 45.8C453.846 46.6267 454.22 47.7067 454.246 49.04C454.246 50.24 453.913 51.32 453.246 52.28C452.58 53.24 451.633 54 450.406 54.56C449.206 55.0933 447.82 55.36 446.246 55.36ZM467.145 55.36C465.465 55.36 463.958 55.08 462.625 54.52C461.291 53.9333 460.238 53.1333 459.465 52.12C458.691 51.08 458.265 49.8933 458.185 48.56H461.945C462.051 49.6533 462.558 50.5467 463.465 51.24C464.398 51.9333 465.611 52.28 467.105 52.28C468.491 52.28 469.585 51.9733 470.385 51.36C471.185 50.7467 471.585 49.9733 471.585 49.04C471.585 48.08 471.158 47.3733 470.305 46.92C469.451 46.44 468.131 45.9733 466.345 45.52C464.718 45.0933 463.385 44.6667 462.345 44.24C461.331 43.7867 460.451 43.1333 459.705 42.28C458.985 41.4 458.625 40.2533 458.625 38.84C458.625 37.72 458.958 36.6933 459.625 35.76C460.291 34.8267 461.238 34.0933 462.465 33.56C463.691 33 465.091 32.72 466.665 32.72C469.091 32.72 471.051 33.3333 472.545 34.56C474.038 35.7867 474.838 37.4667 474.945 39.6H471.305C471.225 38.4533 470.758 37.5333 469.905 36.84C469.078 36.1467 467.958 35.8 466.545 35.8C465.238 35.8 464.198 36.08 463.425 36.64C462.651 37.2 462.265 37.9333 462.265 38.84C462.265 39.56 462.491 40.16 462.945 40.64C463.425 41.0933 464.011 41.4667 464.705 41.76C465.425 42.0267 466.411 42.3333 467.665 42.68C469.238 43.1067 470.518 43.5333 471.505 43.96C472.491 44.36 473.331 44.9733 474.025 45.8C474.745 46.6267 475.118 47.7067 475.145 49.04C475.145 50.24 474.811 51.32 474.145 52.28C473.478 53.24 472.531 54 471.305 54.56C470.105 55.0933 468.718 55.36 467.145 55.36Z" fill="white"/>
<defs>
<linearGradient id="paint0_linear_301_44" x1="149.229" y1="41.6115" x2="163.516" y2="46.4658" gradientUnits="userSpaceOnUse">
<stop stop-color="#929669"/>
<stop offset="0.230769" stop-color="#929669"/>
<stop offset="1" stop-color="#FDFCF1"/>
</linearGradient>
<linearGradient id="paint1_linear_301_44" x1="154.468" y1="18.4074" x2="160.773" y2="57.804" gradientUnits="userSpaceOnUse">
<stop stop-color="#45AA3A"/>
<stop offset="1" stop-color="#3D9439"/>
</linearGradient>
<linearGradient id="paint2_linear_301_44" x1="144.959" y1="40.7886" x2="161.912" y2="35.1042" gradientUnits="userSpaceOnUse">
<stop stop-color="#41A83B"/>
<stop offset="1" stop-color="#5EBC44"/>
</linearGradient>
<linearGradient id="paint3_linear_301_44" x1="3.37468" y1="7.53223" x2="91.6564" y2="7.53223" gradientUnits="userSpaceOnUse">
<stop offset="0.3" stop-color="#3E863D"/>
<stop offset="0.5" stop-color="#55934F"/>
<stop offset="0.8" stop-color="#5AAD45"/>
</linearGradient>
<linearGradient id="paint4_linear_301_44" x1="-7.07463" y1="5.54028" x2="55.0526" y2="5.54028" gradientUnits="userSpaceOnUse">
<stop offset="0.57" stop-color="#3E863D"/>
<stop offset="0.72" stop-color="#619857"/>
<stop offset="1" stop-color="#76AC64"/>
</linearGradient>
<linearGradient id="paint5_linear_301_44" x1="37.7089" y1="18.9688" x2="64.2324" y2="18.9688" gradientUnits="userSpaceOnUse">
<stop offset="0.16" stop-color="#6BBF47"/>
<stop offset="0.38" stop-color="#79B461"/>
<stop offset="0.47" stop-color="#75AC64"/>
<stop offset="0.7" stop-color="#659E5A"/>
<stop offset="0.9" stop-color="#3E863D"/>
</linearGradient>
<clipPath id="clip0_301_44">
<rect width="70" height="70" fill="white" transform="translate(568 7)"/>
</clipPath>
<clipPath id="clip1_301_44">
<rect width="136" height="83" fill="white"/>
</clipPath>
</defs>
</svg>
