<svg width="100" height="100" viewBox="0 0 100 100" fill="none" xmlns="http://www.w3.org/2000/svg">
<path d="M6.25 37.3611C6.25 26.4712 6.25 21.0262 8.36932 16.8669C10.2335 13.2081 13.2081 10.2335 16.8669 8.36932C21.0262 6.25 26.4712 6.25 37.3611 6.25H62.6389C73.5288 6.25 78.9738 6.25 83.1331 8.36932C86.7919 10.2335 89.7665 13.2081 91.6307 16.8669C93.75 21.0262 93.75 26.4712 93.75 37.3611V62.6389C93.75 73.5288 93.75 78.9738 91.6307 83.1331C89.7665 86.7919 86.7919 89.7665 83.1331 91.6307C78.9738 93.75 73.5288 93.75 62.6389 93.75H37.3611C26.4712 93.75 21.0262 93.75 16.8669 91.6307C13.2081 89.7665 10.2335 86.7919 8.36932 83.1331C6.25 78.9738 6.25 73.5288 6.25 62.6389V37.3611Z" fill="black"/>
<path d="M68.9103 26.6343L50.2006 41.2356L31.0631 26.6343V26.6382L31.0862 26.658V47.1037L49.9848 62.0208L68.9103 47.6799V26.6343Z" fill="#D1CECE"/>
<path d="M73.8234 23.0825L68.9099 26.6341V47.6797L84.371 35.8093V28.6586C84.371 28.6586 82.4942 18.4456 73.8234 23.0825Z" fill="#FFFEFC"/>
<path d="M68.9099 47.68V74.9766H80.76C80.76 74.9766 84.132 74.6293 84.3748 70.7856V35.8096L68.9099 47.68Z" fill="#FBFFFC"/>
<path d="M31.0871 75.0001V47.1037L31.0631 47.084L31.0871 75.0001Z" fill="#FFFEFE"/>
<path d="M31.0629 26.6377L26.1764 23.1058C17.5056 18.4689 15.625 28.6779 15.625 28.6779V35.8286L31.0629 47.0835V26.6377Z" fill="#FFFEFE"/>
<path d="M31.0631 26.6387V47.0845L31.0871 47.1042V26.6584L31.0631 26.6387Z" fill="#FFFEFE"/>
<path d="M15.625 35.8335V70.8096C15.8639 74.6572 19.2398 75.0005 19.2398 75.0005H31.0899L31.0629 47.0844L15.625 35.8335Z" fill="#FEFEFE"/>
</svg>
