<svg width="88" height="71" viewBox="0 0 88 71" fill="none" xmlns="http://www.w3.org/2000/svg">
<path d="M27.4908 70.4186C60.4791 70.4186 78.5191 43.3294 78.5191 19.8385C78.5191 19.0691 78.5033 18.3031 78.4685 17.5407C81.9703 15.0314 85.0139 11.9 87.4146 8.33529C84.2011 9.75111 80.743 10.7042 77.1153 11.134C80.8181 8.93314 83.6608 5.4517 85.0019 1.30143C81.5367 3.33763 77.6993 4.81756 73.6135 5.61656C70.3408 2.1612 65.6815 0 60.5223 0C50.6182 0 42.5868 7.96123 42.5868 17.7746C42.5868 19.1696 42.7441 20.5265 43.0518 21.828C28.1461 21.0846 14.9288 14.0107 6.08301 3.25444C4.54278 5.88155 3.65465 8.93323 3.65465 12.1894C3.65465 18.357 6.8209 23.8017 11.6357 26.9869C8.69324 26.8968 5.92916 26.0962 3.51327 24.7636C3.51063 24.8381 3.51062 24.9109 3.51062 24.9906C3.51062 33.5999 9.69263 40.788 17.8989 42.4168C16.3919 42.824 14.8063 43.0424 13.1698 43.0424C12.0159 43.0424 10.8918 42.9298 9.79909 42.7218C12.0823 49.7852 18.7032 54.9252 26.5528 55.0688C20.4145 59.8378 12.682 62.6782 4.27799 62.6782C2.83215 62.6782 1.40381 62.5967 0 62.4322C7.93731 67.475 17.3621 70.4175 27.4918 70.4175" fill="#FEFFFF"/>
</svg>
