<svg width="80" height="80" viewBox="0 0 80 80" fill="none" xmlns="http://www.w3.org/2000/svg">
<path d="M40.0037 0C29.1403 0 27.777 0.0475008 23.5102 0.241667C19.2519 0.436667 16.3452 1.11083 13.8018 2.1C11.1709 3.12167 8.93926 4.48833 6.7159 6.7125C4.49088 8.93583 3.1242 11.1675 2.09919 13.7975C1.10751 16.3417 0.432504 19.2492 0.240835 23.5058C0.0500001 27.7725 0 29.1367 0 40C0 50.8633 0.0483346 52.2225 0.24167 56.4892C0.437505 60.7475 1.11168 63.6542 2.10002 66.1975C3.12253 68.8283 4.48921 71.06 6.7134 73.2833C8.93593 75.5083 11.1676 76.8783 13.7968 77.9C16.3418 78.8892 19.2494 79.5633 23.5069 79.7583C27.7736 79.9525 29.1361 80 39.9988 80C50.863 80 52.2222 79.9525 56.4889 79.7583C60.7473 79.5633 63.6573 78.8892 66.2024 77.9C68.8324 76.8783 71.0607 75.5083 73.2833 73.2833C75.5083 71.06 76.875 68.8283 77.9 66.1983C78.8833 63.6542 79.5583 60.7467 79.7583 56.49C79.95 52.2233 80 50.8633 80 40C80 29.1367 79.95 27.7733 79.7583 23.5067C79.5583 19.2483 78.8833 16.3417 77.9 13.7983C76.875 11.1675 75.5083 8.93583 73.2833 6.7125C71.0582 4.4875 68.8332 3.12083 66.1999 2.1C63.6498 1.11083 60.7415 0.436667 56.4831 0.241667C52.2164 0.0475008 50.858 0 39.9912 0H40.0037ZM36.4154 7.20833C37.4804 7.20667 38.6687 7.20833 40.0037 7.20833C50.6839 7.20833 51.9497 7.24667 56.1673 7.43833C60.0673 7.61667 62.184 8.26833 63.594 8.81583C65.4607 9.54083 66.7915 10.4075 68.1907 11.8075C69.5907 13.2075 70.4574 14.5408 71.1841 16.4075C71.7316 17.8158 72.3841 19.9325 72.5616 23.8325C72.7533 28.0492 72.7949 29.3158 72.7949 39.9908C72.7949 50.6658 72.7533 51.9325 72.5616 56.1492C72.3833 60.0492 71.7316 62.1658 71.1841 63.5742C70.4591 65.4408 69.5907 66.77 68.1907 68.1692C66.7907 69.5692 65.4615 70.4358 63.594 71.1608C62.1856 71.7108 60.0673 72.3608 56.1673 72.5392C51.9505 72.7308 50.6839 72.7725 40.0037 72.7725C29.3228 72.7725 28.057 72.7308 23.8403 72.5392C19.9402 72.3592 17.8235 71.7075 16.4127 71.16C14.546 70.435 13.2126 69.5683 11.8126 68.1683C10.4126 66.7683 9.54593 65.4383 8.81926 63.5708C8.27175 62.1625 7.61925 60.0458 7.44174 56.1458C7.25008 51.9292 7.21174 50.6625 7.21174 39.9808C7.21174 29.2992 7.25008 28.0392 7.44174 23.8225C7.62008 19.9225 8.27175 17.8058 8.81926 16.3958C9.54427 14.5292 10.4126 13.1958 11.8126 11.7958C13.2126 10.3958 14.546 9.52917 16.4127 8.8025C17.8227 8.2525 19.9402 7.6025 23.8403 7.42333C27.5303 7.25667 28.9603 7.20667 36.4154 7.19833V7.20833ZM61.3556 13.85C58.7056 13.85 56.5556 15.9975 56.5556 18.6483C56.5556 21.2983 58.7056 23.4483 61.3556 23.4483C64.0057 23.4483 66.1557 21.2983 66.1557 18.6483C66.1557 15.9983 64.0057 13.8483 61.3556 13.8483V13.85ZM40.0037 19.4583C28.6595 19.4583 19.4619 28.6558 19.4619 40C19.4619 51.3442 28.6595 60.5375 40.0037 60.5375C51.348 60.5375 60.5423 51.3442 60.5423 40C60.5423 28.6558 51.3472 19.4583 40.0029 19.4583H40.0037ZM40.0037 26.6667C47.3672 26.6667 53.3372 32.6358 53.3372 40C53.3372 47.3633 47.3672 53.3333 40.0037 53.3333C32.6395 53.3333 26.6703 47.3633 26.6703 40C26.6703 32.6358 32.6395 26.6667 40.0037 26.6667Z" fill="white"/>
</svg>
