<svg width="512" height="80" viewBox="0 0 512 80" fill="none" xmlns="http://www.w3.org/2000/svg">
<path d="M95 70L90 7.5H150L145 70L120 77.5L95 70Z" fill="#1172B8"/>
<path d="M145 12.5H120V73.75L140 67.5L145 12.5Z" fill="#33AADD"/>
<path d="M128.75 43.75H103.75L102.5 35L122.5 28.75H102.5L101.25 21.25H140L138.75 30L122.5 36.25H137.5L135 60L120 65L105 60L103.75 47.5H111.25L112.5 53.75L120 56.25L127.5 53.75L128.75 43.75Z" fill="white"/>
<path d="M175 70L170 7.5H230L225 70L200 77.5L175 70Z" fill="#E44D26"/>
<path d="M225 12.5H200V73.75L220 67.5L225 12.5Z" fill="#F16529"/>
<path d="M183.75 43.75L181.25 20H220L218.75 27.5H188.75L190 36.25H217.5L215 60L200 65L185 60L183.75 47.5H191.25L192.5 53.75L200 56.25L207.5 53.75L208.75 43.75H183.75Z" fill="white"/>
<rect x="247" y="5" width="70" height="70" fill="#FFCA28"/>
<path d="M289.5 63.2191L294.654 59.8089C295.058 61.0778 297.615 64.0915 300.846 64.0915C304.077 64.0915 305.577 62.3269 305.577 61.1571C305.577 57.9691 302.278 56.8451 300.693 56.3053C300.435 56.2172 300.222 56.1448 300.077 56.0814C300.002 56.0489 299.89 56.0058 299.745 55.9505C297.982 55.2772 291.481 52.7932 291.481 45.5929C291.481 37.662 299.135 36.75 300.865 36.75C301.998 36.75 307.442 36.8888 310.154 41.9843L305.154 45.4739C304.058 43.2533 302.236 42.5197 301.115 42.5197C298.346 42.5197 297.769 44.5499 297.769 45.4739C297.769 48.067 300.778 49.2292 303.318 50.2105C303.983 50.4673 304.616 50.7116 305.154 50.966C307.923 52.2746 312 54.4159 312 61.1571C312 64.5336 309.168 70 302.038 70C292.462 70 289.923 64.2502 289.5 63.2191Z" fill="#3E3E3E"/>
<path d="M264.5 63.8964L269.872 60.4878C270.293 61.7561 271.928 64.0945 274.301 64.0945C276.674 64.0945 277.889 61.657 277.889 60.4878V37.5H284.495V60.4878C284.602 63.6585 282.844 70 275.083 70C267.947 70 264.981 65.7592 264.5 63.8964Z" fill="#3E3E3E"/>
<path d="M46.6972 39.9398C46.6972 36.3537 43.699 33.4463 40 33.4463C36.3014 33.4463 33.3028 36.3537 33.3028 39.9398C33.3028 43.5262 36.3014 46.4335 40 46.4335C43.699 46.4335 46.6972 43.5262 46.6972 39.9398Z" fill="#53C1DE"/>
<path fill-rule="evenodd" clip-rule="evenodd" d="M61.7509 27.8843C63.1653 22.312 64.9431 11.9787 58.676 8.4754C52.4383 4.98737 44.3211 11.6711 40.0349 15.683C35.7611 11.711 27.4159 5.05592 21.1541 8.57034C14.9188 12.0701 16.8416 22.232 18.2873 27.8392C12.4708 29.441 2.5 32.891 2.5 39.9398C2.5 46.9685 12.4604 50.722 18.2424 52.3222C16.7914 57.9605 14.9649 67.9773 21.2082 71.4691C27.4932 74.9829 35.8126 68.4863 40.1384 64.4305C44.4522 68.466 52.4915 75.0052 58.7304 71.5036C64.9891 67.9908 63.3589 57.796 61.9132 52.1562C67.5182 50.5525 77.5 46.8808 77.5 39.9398C77.5 32.9587 67.4758 29.4807 61.7509 27.8843ZM61.0406 49.1674C60.0913 46.2539 58.8101 43.1557 57.2427 39.9552C58.7387 36.8303 59.9701 33.772 60.8929 30.8772C65.0897 32.0569 74.2963 34.7532 74.2963 39.9398C74.2963 45.1749 65.4616 47.8968 61.0406 49.1674ZM57.1249 68.8151C52.4701 71.4275 45.5554 65.1741 42.3696 62.2022C44.483 59.961 46.595 57.3556 48.6562 54.4624C52.2821 54.1505 55.7076 53.6404 58.8141 52.9443C59.8316 56.9335 61.8006 66.1907 57.1249 68.8151ZM22.809 68.7777C18.1536 66.1751 20.2814 57.2366 21.3489 53.0834C24.4209 53.7421 27.8214 54.2162 31.456 54.502C33.5308 57.333 35.7039 59.9353 37.894 62.2141C35.1881 64.7519 27.4863 71.3925 22.809 68.7777ZM5.70372 39.9398C5.70372 34.6849 14.8552 32.0083 19.1476 30.8315C20.0863 33.7913 21.3174 36.886 22.8031 40.0154C21.2981 43.1915 20.0494 46.3354 19.1021 49.3299C15.0092 48.1941 5.70372 45.1979 5.70372 39.9398ZM22.7593 11.2589C27.4338 8.63541 34.6868 15.0246 37.7897 17.9003C35.611 20.1689 33.4578 22.7515 31.4009 25.5662C27.8735 25.8832 24.4969 26.3923 21.3927 27.0742C20.2281 22.5518 18.0898 13.8795 22.7593 11.2589ZM50.9481 28.9427C53.3413 29.2356 55.6339 29.625 57.7868 30.1016C57.1405 32.1101 56.3349 34.2103 55.3863 36.3633C54.011 33.8332 52.5347 31.354 50.9481 28.9427ZM40.0358 20.1203C41.5136 21.6724 42.9936 23.4058 44.4494 25.2862C41.4963 25.1509 38.5383 25.1502 35.5851 25.2842C37.0422 23.4212 38.5349 21.6904 40.0358 20.1203ZM24.6413 36.3611C23.7082 34.2155 22.9099 32.1059 22.2581 30.0688C24.398 29.6044 26.6799 29.225 29.0575 28.9369C27.4665 31.3429 25.9927 33.8212 24.6413 36.3611ZM29.1259 51.1643C26.6696 50.8985 24.3531 50.5384 22.2139 50.0869C22.8761 48.0137 23.692 45.8587 24.6449 43.6671C26.0151 46.2332 27.5112 48.7356 29.1259 51.1643ZM40.1245 59.9787C38.6059 58.3899 37.0914 56.6327 35.612 54.7427C38.5821 54.8558 41.5579 54.8561 44.5274 54.7276C43.067 56.6521 41.5922 58.4118 40.1245 59.9787ZM55.4168 43.5555C56.4192 45.7709 57.2643 47.9142 57.9355 49.9523C55.7607 50.4335 53.413 50.8209 50.9392 51.1086C52.5376 48.6518 54.0371 46.134 55.4168 43.5555ZM46.8681 51.4852C42.3253 51.7999 37.7539 51.7966 33.2095 51.5109C30.6272 47.8536 28.3286 44.0074 26.3444 40.0144C28.3189 36.0297 30.6009 32.1911 33.171 28.5395C37.7189 28.2062 42.2946 28.2054 46.8423 28.5414C49.3902 32.1928 51.6688 36.0215 53.6892 39.9703C51.6927 43.9531 49.3988 47.7995 46.8681 51.4852ZM57.0758 11.1665C61.7515 13.7813 59.6702 23.0682 58.6488 27.1064C55.5373 26.4103 52.1583 25.8922 48.6207 25.5703C46.5598 22.7251 44.4245 20.138 42.281 17.8987C45.4238 14.961 52.4452 8.57722 57.0758 11.1665Z" fill="#53C1DE"/>
<g clip-path="url(#clip0)">
<path d="M363.296 14.0867C348.817 14.0867 337.079 25.8242 337.079 40.3029C337.079 54.7821 348.817 66.5187 363.296 66.5187C377.776 66.5187 389.513 54.7821 389.513 40.3029C389.513 25.8251 377.776 14.0879 363.295 14.0879L363.296 14.0867V14.0867ZM375.318 51.8979C374.849 52.6681 373.841 52.9122 373.071 52.4395C366.915 48.6797 359.166 47.8282 350.041 49.9131C349.161 50.1135 348.285 49.5625 348.085 48.6828C347.883 47.8031 348.432 46.9266 349.314 46.7262C359.3 44.4446 367.866 45.427 374.777 49.6502C375.547 50.1229 375.791 51.1278 375.318 51.8979V51.8979ZM378.527 44.7596C377.936 45.7213 376.677 46.0249 375.716 45.4333C368.669 41.1018 357.927 39.8474 349.592 42.3775C348.511 42.704 347.369 42.0948 347.041 41.0157C346.715 39.9347 347.325 38.7952 348.404 38.4665C357.925 35.5775 369.762 36.9769 377.854 41.9499C378.815 42.5415 379.119 43.8 378.527 44.7599V44.7596ZM378.803 37.3263C370.353 32.3076 356.413 31.8462 348.346 34.2946C347.05 34.6875 345.68 33.9562 345.288 32.6608C344.895 31.3647 345.626 29.9957 346.922 29.6019C356.183 26.7906 371.577 27.3338 381.305 33.1088C382.473 33.8003 382.855 35.3052 382.163 36.4688C381.474 37.634 379.965 38.0182 378.804 37.3263H378.803ZM408.406 38.288C403.879 37.2086 403.074 36.451 403.074 34.8591C403.074 33.3551 404.489 32.343 406.596 32.343C408.637 32.343 410.66 33.1116 412.782 34.6938C412.845 34.7417 412.926 34.7608 413.004 34.7483C413.086 34.7364 413.155 34.6928 413.202 34.6274L415.412 31.5118C415.503 31.3835 415.478 31.2066 415.356 31.1086C412.829 29.0822 409.987 28.097 406.662 28.097C401.775 28.097 398.36 31.03 398.36 35.2266C398.36 39.7268 401.305 41.3203 406.396 42.5503C410.725 43.548 411.458 44.3839 411.458 45.8778C411.458 47.5339 409.98 48.5639 407.601 48.5639C404.959 48.5639 402.802 47.6716 400.391 45.5867C400.332 45.5334 400.25 45.5115 400.175 45.5147C400.094 45.5209 400.022 45.5585 399.972 45.618L397.492 48.567C397.389 48.6922 397.402 48.8738 397.521 48.9802C400.326 51.4847 403.776 52.8058 407.501 52.8058C412.767 52.8058 416.17 49.9288 416.17 45.474C416.179 41.7151 413.928 39.6332 408.415 38.2921L408.406 38.288V38.288ZM428.085 33.8238C425.802 33.8238 423.93 34.7229 422.384 36.5652V34.4915C422.384 34.3278 422.252 34.1945 422.089 34.1945H418.035C417.873 34.1945 417.741 34.3278 417.741 34.4915V57.533C417.741 57.6958 417.873 57.8304 418.035 57.8304H422.089C422.252 57.8304 422.384 57.6958 422.384 57.533V50.2606C423.93 51.9919 425.802 52.8402 428.085 52.8402C432.327 52.8402 436.622 49.575 436.622 43.333C436.628 37.0896 432.333 33.8235 428.088 33.8235L428.085 33.8238ZM431.907 43.333C431.907 46.5102 429.95 48.7298 427.145 48.7298C424.375 48.7298 422.284 46.41 422.284 43.333C422.284 40.2556 424.375 37.9364 427.145 37.9364C429.903 37.9361 431.907 40.2052 431.907 43.3326V43.333ZM447.626 33.8238C442.163 33.8238 437.883 38.03 437.883 43.4009C437.883 48.7141 442.135 52.8747 447.56 52.8747C453.042 52.8747 457.334 48.6828 457.334 43.333C457.334 38.0012 453.07 33.8244 447.626 33.8244V33.8238V33.8238ZM447.626 48.7611C444.721 48.7611 442.529 46.4257 442.529 43.3314C442.529 40.223 444.645 37.9674 447.56 37.9674C450.484 37.9674 452.688 40.3019 452.688 43.3993C452.688 46.5071 450.559 48.7611 447.626 48.7611V48.7611ZM468.998 34.1945H464.537V29.6344C464.537 29.471 464.406 29.3377 464.243 29.3377H460.189C460.026 29.3377 459.891 29.471 459.891 29.6344V34.1945H457.944C457.781 34.1945 457.65 34.3278 457.65 34.4915V37.975C457.65 38.1384 457.781 38.272 457.944 38.272H459.891V47.2866C459.891 50.9275 461.704 52.7745 465.282 52.7745C466.735 52.7745 467.94 52.474 469.077 51.8291C469.17 51.779 469.227 51.6788 469.227 51.5724V48.2539C469.227 48.1538 469.174 48.0567 469.086 48.0035C468.998 47.9471 468.889 47.944 468.798 47.991C468.018 48.3823 467.264 48.5639 466.419 48.5639C465.119 48.5639 464.537 47.9722 464.537 46.6511V38.2736H468.998C469.161 38.2736 469.293 38.1402 469.293 37.9765V34.4934C469.299 34.3297 469.167 34.1963 469.001 34.1963L468.998 34.1945V34.1945ZM484.538 34.2123V33.6522C484.538 32.0046 485.171 31.2699 486.586 31.2699C487.431 31.2699 488.11 31.4377 488.871 31.6912C488.965 31.7207 489.062 31.7059 489.137 31.6499C489.216 31.5939 489.259 31.504 489.259 31.4089V27.9934C489.259 27.8628 489.178 27.7473 489.05 27.7088C488.248 27.4699 487.221 27.2248 485.681 27.2248C481.94 27.2248 479.958 29.333 479.958 33.3191V34.1769H478.011C477.848 34.1769 477.714 34.3103 477.714 34.4737V37.975C477.714 38.1384 477.848 38.272 478.011 38.272H479.958V52.1734C479.958 52.3393 480.093 52.4708 480.256 52.4708H484.307C484.473 52.4708 484.604 52.3393 484.604 52.1734V38.273H488.389L494.187 52.1734C493.53 53.6323 492.882 53.9234 491.999 53.9234C491.285 53.9234 490.53 53.7105 489.763 53.2879C489.691 53.2504 489.604 53.2441 489.529 53.266C489.45 53.2942 489.385 53.3505 489.353 53.4257L487.979 56.4404C487.913 56.5844 487.97 56.7504 488.107 56.8255C489.541 57.6019 490.834 57.9337 492.434 57.9337C495.427 57.9337 497.083 56.5375 498.538 52.787L505.57 34.618C505.607 34.5266 505.595 34.4233 505.538 34.3422C505.485 34.2618 505.395 34.2132 505.297 34.2132H501.077C500.949 34.2132 500.836 34.2937 500.796 34.4123L496.472 46.7575L491.739 34.4042C491.695 34.2893 491.585 34.2132 491.463 34.2132H484.538V34.2123V34.2123ZM475.529 34.1945H471.475C471.312 34.1945 471.177 34.3278 471.177 34.4915V52.1734C471.177 52.3393 471.312 52.4708 471.475 52.4708H475.529C475.691 52.4708 475.826 52.3393 475.826 52.1734V34.4928C475.826 34.3291 475.695 34.1957 475.529 34.1957V34.1945ZM473.525 26.1429C471.919 26.1429 470.617 27.4427 470.617 29.0484C470.617 30.655 471.919 31.9564 473.525 31.9564C475.131 31.9564 476.43 30.655 476.43 29.0484C476.43 27.443 475.128 26.1429 473.525 26.1429ZM509.032 39.8799C507.429 39.8799 506.18 38.5917 506.18 37.0273C506.18 35.463 507.445 34.16 509.048 34.16C510.651 34.16 511.9 35.4479 511.9 37.011C511.9 38.5754 510.635 39.8799 509.032 39.8799ZM509.048 34.4436C507.586 34.4436 506.481 35.6051 506.481 37.0273C506.481 38.4489 507.58 39.5947 509.032 39.5947C510.494 39.5947 511.599 38.4342 511.599 37.011C511.599 35.5894 510.5 34.4436 509.048 34.4436V34.4436ZM509.68 37.3044L510.488 38.4339H509.805L509.079 37.3977H508.456V38.4339H507.886V35.4398H509.22C509.918 35.4398 510.375 35.7957 510.375 36.3949C510.378 36.8858 510.094 37.1857 509.683 37.3044H509.68ZM509.198 35.9535H508.456V36.9005H509.198C509.568 36.9005 509.79 36.7193 509.79 36.4266C509.79 36.1185 509.568 35.9535 509.198 35.9535V35.9535Z" fill="#1ED760"/>
</g>
<defs>
<clipPath id="clip0">
<rect width="175" height="52.5939" fill="white" transform="translate(337 14)"/>
</clipPath>
</defs>
</svg>
